<svg version="1.1" id="Layer_1" xmlns="http://www.w3.org/2000/svg" xmlns:xlink="http://www.w3.org/1999/xlink" x="0px" y="0px"
	 width="100%" viewBox="0 0 487 466" enable-background="new 0 0 487 466" xml:space="preserve">
<path fill="#F8FAFB" opacity="1.000000" stroke="none" 
	d="
M322.000000,467.000000 
	C216.000000,467.000000 110.499977,466.978668 5.000106,467.095459 
	C1.576064,467.099243 0.902751,466.423706 0.905208,462.999939 
	C1.014780,310.333344 1.014780,157.666656 0.905209,5.000068 
	C0.902751,1.576319 1.576342,0.902938 5.000064,0.905272 
	C164.666656,1.014141 324.333344,1.014141 483.999939,0.905272 
	C487.423676,0.902938 488.097260,1.576319 488.094788,5.000068 
	C487.985229,157.666656 487.985199,310.333344 488.094788,462.999939 
	C488.097229,466.423706 487.424896,467.106110 483.999756,467.097290 
	C430.166748,466.958618 376.333344,467.000000 322.000000,467.000000 
z"/>
<path fill="#FB7F86" opacity="1.000000" stroke="none" 
	d="
M361.503845,390.832825 
	C357.343781,390.933990 353.665527,390.903595 349.531067,390.880493 
	C345.159760,387.781860 340.588013,387.641815 335.848419,387.644958 
	C256.563141,387.697479 177.277863,387.687775 97.992569,387.665894 
	C94.849045,387.665009 91.647072,388.058868 88.186890,386.546387 
	C86.208862,384.270416 86.334610,381.883789 86.330406,379.568420 
	C86.285568,354.910675 86.294884,330.252808 86.320236,305.595001 
	C86.322289,303.597656 86.313057,301.586945 87.391556,299.268982 
	C89.794769,297.129578 92.359413,297.332977 94.833458,297.332062 
	C187.079102,297.297302 279.324738,297.296448 371.570404,297.329071 
	C379.521545,297.331879 380.641785,298.417725 380.662964,306.189514 
	C380.729187,330.499573 380.738251,354.809967 380.657104,379.119995 
	C380.632904,386.370941 379.500519,387.518768 372.219147,387.629639 
	C368.449554,387.687103 364.945312,388.164154 361.503845,390.832825 
z"/>
<path fill="#060505" opacity="1.000000" stroke="none" 
	d="
M87.659027,385.599731 
	C90.029625,385.921692 92.024811,386.032410 94.020020,386.032623 
	C176.320663,386.041412 258.621307,386.044220 340.921967,386.026215 
	C344.349487,386.025452 347.759827,385.850891 348.963257,390.542023 
	C348.323822,394.177856 346.218292,395.432953 342.908630,395.373840 
	C336.581390,395.260773 330.250641,395.345367 323.921326,395.345398 
	C243.305893,395.345703 162.690475,395.346375 82.075043,395.344727 
	C70.465584,395.344513 67.990173,392.880402 67.989975,381.350433 
	C67.989517,354.700714 67.983208,328.050964 67.993637,301.401245 
	C67.997086,292.591492 71.544380,289.074554 80.422585,289.060669 
	C90.915886,289.044250 101.415176,288.853271 111.899582,289.159088 
	C115.958099,289.277466 117.120293,288.363281 117.105988,284.089294 
	C116.934357,232.789124 117.539581,181.479584 116.727409,130.191711 
	C116.401886,109.635086 129.545013,98.403831 147.373474,100.000191 
	C153.982971,100.591995 160.690186,100.141144 167.352020,100.078125 
	C170.353638,100.049736 172.570450,100.957275 173.469421,104.498375 
	C173.999878,105.797447 174.042099,106.755157 173.515930,108.158249 
	C172.238342,109.994301 170.756454,110.990540 169.108673,111.091042 
	C163.983704,111.403648 163.617462,114.727234 163.620621,118.749237 
	C163.662781,172.563553 163.638351,226.377914 163.664413,280.192261 
	C163.667740,287.066895 163.740631,287.066864 172.629730,287.479919 
	C175.102325,287.275421 177.102097,287.315582 179.101501,287.315857 
	C225.758484,287.322327 272.415466,287.318939 319.072449,287.318024 
	C320.738495,287.317993 322.405396,287.259308 324.069824,287.261536 
	C327.017426,287.265442 328.276917,285.784607 328.269073,282.935211 
	C328.264923,281.436981 328.318451,279.936829 328.318481,278.437286 
	C328.319794,226.114807 328.319916,173.792328 328.319153,121.469856 
	C328.319153,121.136597 328.319672,120.803322 328.317871,120.470070 
	C328.271790,111.996384 328.016235,111.693794 319.675934,111.689499 
	C279.684235,111.668877 239.692535,111.684311 199.700836,111.675667 
	C197.037003,111.675095 194.345551,111.866768 191.726288,111.297020 
	C188.687500,110.636024 185.934921,109.505714 185.583740,105.386826 
	C186.490982,100.688225 189.424255,100.041740 193.133423,100.056519 
	C213.956024,100.139488 234.782318,99.899254 255.599731,100.237694 
	C260.638489,100.319611 261.918549,98.800400 261.347656,94.176743 
	C260.983215,91.225166 261.103394,88.171700 261.360413,85.194489 
	C261.843384,79.599411 264.804169,76.773262 270.414246,76.709145 
	C281.074097,76.587303 291.737091,76.589798 302.397156,76.699440 
	C308.382111,76.761002 311.521698,79.910179 311.826508,85.931465 
	C311.986359,89.088539 312.170013,92.298897 311.783295,95.415756 
	C311.265137,99.591591 313.065948,100.513885 316.763855,100.150459 
	C319.568634,99.874809 322.422485,100.078850 325.254211,100.100761 
	C334.277557,100.170586 338.994720,104.915176 338.996979,114.032600 
	C339.010803,170.504364 339.054291,226.976242 338.907410,283.447632 
	C338.896057,287.816620 339.731415,289.363892 344.461304,289.183807 
	C355.107208,288.778473 365.779297,289.018494 376.440399,289.069855 
	C384.230164,289.107391 387.993774,292.917236 388.000671,300.768524 
	C388.024872,328.421356 388.023743,356.074219 388.001648,383.727051 
	C387.995148,391.855591 384.631378,395.227417 376.537048,395.337799 
	C373.539093,395.378662 370.535583,395.240631 367.542938,395.373291 
	C364.561737,395.505371 362.342896,394.605530 361.152832,391.300537 
	C362.125580,385.928589 365.903290,385.943329 369.950043,385.999573 
	C378.772614,386.122162 378.773895,386.031616 378.773895,377.164337 
	C378.773926,352.694946 378.712708,328.225250 378.840698,303.756500 
	C378.859589,300.144257 378.356873,298.548950 374.066681,298.555817 
	C279.019440,298.707947 183.971939,298.693420 88.466179,298.816162 
	C86.869278,300.017609 85.448982,300.562073 83.930672,300.509857 
	C79.757271,300.366241 78.584465,302.543610 78.594902,306.390442 
	C78.660210,330.465179 78.658417,354.540436 78.596138,378.615173 
	C78.586174,382.468323 79.774193,384.651703 83.947945,384.470093 
	C85.103973,384.419800 86.257088,384.718994 87.659027,385.599731 
z"/>
<path fill="#90DCB5" opacity="1.000000" stroke="none" 
	d="
M172.676682,108.060608 
	C172.979248,106.883720 173.155380,106.190361 173.483917,105.173874 
	C177.376968,104.875488 181.117630,104.900238 185.298706,104.923233 
	C186.710754,109.428932 190.112411,109.712608 193.820740,109.709785 
	C230.123062,109.682190 266.425415,109.693359 302.727783,109.693573 
	C309.721802,109.693611 316.723389,109.890701 323.707123,109.622726 
	C328.135071,109.452812 329.911713,110.769203 329.900879,115.518532 
	C329.771759,171.970062 329.779755,228.422073 329.904236,284.873627 
	C329.912476,288.611694 328.558655,289.125702 325.308716,289.119385 
	C274.852051,289.021332 224.395126,289.039948 173.475861,288.955811 
	C171.181747,287.010895 171.328659,284.603424 171.326920,282.292633 
	C171.285004,226.476593 171.288025,170.660568 171.310013,114.844536 
	C171.310867,112.659752 171.463531,110.511841 172.676682,108.060608 
z"/>
<path fill="#070404" opacity="1.000000" stroke="none" 
	d="
M188.659363,310.181091 
	C207.397308,312.430023 216.891281,326.306915 218.367691,338.880951 
	C220.255814,354.961578 208.364410,371.246155 192.431839,373.831787 
	C174.970383,376.665558 158.398285,365.771118 155.138382,349.315186 
	C150.919159,328.016602 166.030869,310.133179 188.659363,310.181091 
z"/>
<path fill="#050202" opacity="1.000000" stroke="none" 
	d="
M291.056458,342.049438 
	C291.056244,350.873322 291.011902,359.205994 291.076996,367.537842 
	C291.103821,370.973785 290.807159,374.238800 286.368042,374.170044 
	C282.276337,374.106659 281.922424,371.060242 281.933014,367.776062 
	C281.987762,350.778290 281.994202,333.780090 281.924835,316.782440 
	C281.913025,313.884216 282.254425,311.337402 285.460083,310.459869 
	C288.486755,309.631378 290.016937,311.824371 291.456207,313.904938 
	C300.717163,327.292114 309.956757,340.694092 319.996307,355.240112 
	C319.996307,347.128174 320.013336,340.269867 319.991119,333.411682 
	C319.972260,327.579163 319.937439,321.746338 319.852722,315.914490 
	C319.804413,312.591888 321.083618,310.137115 324.623138,310.284515 
	C327.767639,310.415497 329.007141,312.678253 329.035950,315.832886 
	C329.187988,332.496002 329.456543,349.158051 329.642426,365.820923 
	C329.678802,369.080170 329.399109,372.379150 325.566528,373.513489 
	C321.923920,374.591583 320.136444,371.989746 318.388397,369.455231 
	C309.614471,356.733978 300.824615,344.023712 291.056458,331.430969 
	C291.056458,334.806610 291.056458,338.182251 291.056458,342.049438 
z"/>
<path fill="#060303" opacity="1.000000" stroke="none" 
	d="
M265.595520,347.388977 
	C268.193970,354.273712 270.585541,360.820374 273.116089,367.312897 
	C274.286896,370.316803 273.705017,372.690674 270.726990,373.871094 
	C267.758484,375.047668 264.854279,373.772980 264.473785,370.784943 
	C263.212402,360.878662 256.772125,359.968018 248.883774,360.966888 
	C247.900574,361.091431 246.870682,361.104919 245.891769,360.964783 
	C237.911331,359.822662 231.686844,361.143341 230.225067,370.750153 
	C229.753647,373.848480 226.901581,375.015686 223.991241,373.859314 
	C221.081100,372.703094 220.457626,370.418121 221.652069,367.320770 
	C228.336960,349.985962 234.891388,332.600800 241.462097,315.222137 
	C242.545883,312.355682 244.230087,310.165009 247.525955,310.203766 
	C250.823227,310.242523 252.475677,312.514862 253.539536,315.351929 
	C257.500092,325.913879 261.475586,336.470276 265.595520,347.388977 
z"/>
<path fill="#F7616C" opacity="1.000000" stroke="none" 
	d="
M88.024872,385.402863 
	C77.206505,386.505920 77.206505,386.505920 77.206505,375.735748 
	C77.206512,352.331055 77.180573,328.926361 77.221245,305.521729 
	C77.234612,297.826294 76.165421,298.735962 84.115128,298.653961 
	C85.110466,298.643707 86.106331,298.683746 87.554909,298.811096 
	C88.010345,327.595581 88.012825,356.269379 88.024872,385.402863 
z"/>
<path fill="#0E0707" opacity="1.000000" stroke="none" 
	d="
M126.302071,315.719574 
	C126.850067,312.172882 128.255646,309.693359 131.831894,310.314484 
	C135.259201,310.909760 135.879272,313.696472 135.868118,316.803711 
	C135.815598,331.433746 135.958969,346.065552 135.764542,360.693176 
	C135.718033,364.193237 136.666000,365.435150 140.188293,365.079163 
	C143.150848,364.779724 146.168930,365.075653 149.159256,364.992889 
	C152.491531,364.900665 154.897186,366.263733 154.924881,369.688141 
	C154.953644,373.247406 152.273392,374.318634 149.091202,374.335297 
	C144.270630,374.360535 139.448715,374.479980 134.629837,374.403931 
	C127.207512,374.286804 126.289742,373.329834 126.284111,366.023865 
	C126.271309,349.398621 126.283234,332.773376 126.302071,315.719574 
z"/>
<path fill="#918291" opacity="1.000000" stroke="none" 
	d="
M140.649673,110.400879 
	C152.259598,108.917328 152.259613,108.917328 152.259598,119.793053 
	C152.259598,174.394226 152.209885,228.995529 152.355850,283.596313 
	C152.367264,287.868866 151.491608,289.681458 146.933472,289.118347 
	C143.652985,288.713074 140.284561,289.019653 136.493805,288.942627 
	C134.199326,287.009705 134.359924,284.605225 134.358566,282.297974 
	C134.327911,230.388855 134.284531,178.479691 134.387650,126.570686 
	C134.399445,120.640121 135.464142,114.942421 140.649673,110.400879 
z"/>
<path fill="#6ED4A1" opacity="1.000000" stroke="none" 
	d="
M172.479187,107.782654 
	C172.865158,113.570786 172.979309,119.564491 172.981155,125.558220 
	C172.997742,179.691681 172.994659,233.825150 173.005402,288.419312 
	C161.992310,289.475189 161.992310,289.475189 161.992310,278.459625 
	C161.992325,224.064087 162.027542,169.668488 161.919052,115.273170 
	C161.911194,111.330238 162.242050,108.773560 167.114517,109.656265 
	C168.944489,109.987778 170.731400,109.323334 172.479187,107.782654 
z"/>
<path fill="#776A76" opacity="1.000000" stroke="none" 
	d="
M140.624695,110.005920 
	C134.642349,119.391571 136.003876,129.994614 136.001053,140.354294 
	C135.987671,189.555222 136.001831,238.756134 136.019226,288.416809 
	C126.147240,289.409882 126.147194,289.409882 126.147240,279.638092 
	C126.147446,229.012619 126.137962,178.387161 126.155746,127.761696 
	C126.159508,117.051781 131.105118,110.846703 140.624695,110.005920 
z"/>
<path fill="#FC7F86" opacity="1.000000" stroke="none" 
	d="
M279.717102,86.513870 
	C286.488647,86.088959 292.940796,86.007973 299.393127,85.984489 
	C300.453247,85.980637 301.998505,85.589462 302.044617,87.336853 
	C302.144928,91.139175 302.208557,94.954002 302.001923,98.748184 
	C301.892792,100.752541 299.995178,100.046577 298.830872,100.057892 
	C292.871735,100.115829 286.911530,100.064568 280.492554,99.962830 
	C277.468628,95.656860 278.086456,91.283890 279.717102,86.513870 
z"/>
<path fill="#FD646F" opacity="1.000000" stroke="none" 
	d="
M279.578674,86.071228 
	C280.031891,90.421707 280.027313,94.692650 280.028076,99.418892 
	C270.813690,100.510223 270.813690,100.510223 270.821198,91.738159 
	C270.826172,85.919601 270.826172,85.919601 279.578674,86.071228 
z"/>
<path fill="#050605" opacity="1.000000" stroke="none" 
	d="
M189.653412,144.758942 
	C206.652603,138.407715 223.303619,132.230911 239.921295,125.965691 
	C242.238541,125.092049 244.313232,125.027695 246.661087,125.907188 
	C266.565918,133.363464 286.523773,140.678238 306.422638,148.150269 
	C312.843719,150.561356 313.767914,154.987442 308.716125,159.277985 
	C307.157440,160.601807 307.005585,161.874527 307.006500,163.540039 
	C307.016785,182.370544 307.039886,201.201141 306.973907,220.031418 
	C306.966705,222.087814 307.514740,223.296600 309.413147,224.369110 
	C314.331329,227.147705 316.457031,231.761917 316.702454,237.241196 
	C316.866333,240.900040 316.846313,244.576004 316.712830,248.237152 
	C316.524506,253.403473 314.455414,255.500519 309.342621,255.637695 
	C304.513550,255.767273 299.674408,255.782806 294.846710,255.629044 
	C289.906403,255.471695 288.034637,253.466324 287.927124,248.474792 
	C287.844604,244.643860 287.892120,240.809479 287.921112,236.976944 
	C287.961945,231.574600 290.149384,227.301575 294.842407,224.520813 
	C296.566711,223.499115 297.477844,222.388718 297.466400,220.217682 
	C297.370758,202.054550 297.398254,183.890778 297.367554,165.727234 
	C297.366760,165.253830 297.126587,164.780807 297.004791,164.332245 
	C292.021515,164.572098 290.442780,166.920151 290.599121,171.989975 
	C291.009735,185.308640 290.757782,198.648407 290.728516,211.979675 
	C290.712799,219.142090 288.994293,221.287933 282.042969,223.332138 
	C256.294281,230.904190 230.551849,230.875931 204.797134,223.364471 
	C197.743988,221.307373 195.970215,219.013840 195.963959,211.619247 
	C195.952271,197.787994 195.886810,183.956024 196.019974,170.126053 
	C196.047775,167.238922 195.420731,165.656448 192.366364,164.800369 
	C188.225937,163.639893 184.313721,161.690048 180.227722,160.302246 
	C177.268127,159.297012 175.162674,157.736420 175.074387,154.401138 
	C174.978424,150.775375 177.273300,149.119553 180.395691,148.100876 
	C183.390732,147.123734 186.330536,145.977310 189.653412,144.758942 
z"/>
<path fill="#050604" opacity="1.000000" stroke="none" 
	d="
M280.897034,252.221252 
	C280.895966,257.523102 280.969910,262.353973 280.873016,267.181458 
	C280.770050,272.311493 278.286560,274.944519 273.229004,274.963440 
	C253.245697,275.038147 233.261734,275.042297 213.278488,274.958252 
	C208.493774,274.938141 205.959717,272.287354 205.874115,267.494965 
	C205.764084,261.335358 205.749130,255.170197 205.878815,249.011322 
	C205.976791,244.357590 208.376999,241.928558 212.999710,241.912994 
	C233.149597,241.845123 253.300018,241.841232 273.449890,241.911163 
	C279.136444,241.930923 280.827606,244.322968 280.897034,252.221252 
z"/>
<path fill="#FA7F86" opacity="1.000000" stroke="none" 
	d="
M206.106750,331.098328 
	C212.420380,344.639496 207.431229,358.513550 194.796600,363.378296 
	C182.067291,368.279510 168.866608,361.770935 164.664062,348.521545 
	C161.469589,338.450256 166.564789,326.849945 176.307053,322.013794 
	C187.013275,316.699127 198.664246,320.142853 206.106750,331.098328 
z"/>
<path fill="#F17A80" opacity="1.000000" stroke="none" 
	d="
M243.734009,335.652496 
	C244.927719,332.529968 245.998154,329.773285 247.448288,326.038818 
	C249.360855,331.065338 250.924179,335.149200 252.468613,339.240143 
	C253.970871,343.219391 255.453781,347.205933 257.157593,351.756592 
	C251.116409,351.756592 245.686569,351.714508 240.257904,351.776123 
	C237.897919,351.802887 237.925995,350.773376 238.637558,348.996277 
	C240.359406,344.695984 241.960785,340.347443 243.734009,335.652496 
z"/>
<path fill="#8E7F8E" opacity="1.000000" stroke="none" 
	d="
M218.534485,164.520477 
	C209.627319,161.166321 201.069305,157.992966 191.322922,154.378967 
	C198.066254,151.781433 203.786087,149.520309 209.547821,147.371582 
	C219.500061,143.660095 229.504333,140.086563 239.428253,136.301682 
	C242.055634,135.299622 244.392105,135.111053 247.085022,136.124802 
	C262.902924,142.079453 278.772766,147.896194 295.867889,154.219116 
	C282.707977,159.128448 270.395569,162.876068 258.854431,168.272964 
	C248.047607,173.326477 238.125595,173.649567 227.732224,168.027725 
	C224.986313,166.542465 221.843964,165.790161 218.534485,164.520477 
z"/>
<path fill="#908190" opacity="1.000000" stroke="none" 
	d="
M280.588837,174.777527 
	C280.997009,180.837341 280.940216,186.659485 281.177826,192.469604 
	C281.283142,195.045166 280.059601,195.955643 277.881165,196.529770 
	C257.635071,201.865433 237.275452,202.846008 216.383469,198.104492 
	C213.243576,191.914001 214.440903,185.626587 215.163391,179.458984 
	C215.478394,176.769928 218.049973,177.246826 220.028351,177.721848 
	C225.511246,179.038330 230.920609,180.663040 236.183884,182.648529 
	C241.092056,184.500061 245.725708,184.514557 250.660645,182.707077 
	C259.223511,179.570847 268.101135,177.401459 276.821777,174.743881 
	C277.935944,174.404358 279.076599,174.167130 280.588837,174.777527 
z"/>
<path fill="#F6E8A7" opacity="1.000000" stroke="none" 
	d="
M215.707062,208.486176 
	C228.881714,210.130951 241.743927,211.089050 254.734756,210.122864 
	C263.525940,209.469055 272.071838,207.520432 280.644806,205.645782 
	C281.951019,213.726898 281.954895,213.741882 274.716003,215.615814 
	C255.415527,220.612152 236.017700,220.843567 216.209473,216.571487 
	C214.318130,213.960556 214.099365,211.450073 215.707062,208.486176 
z"/>
<path fill="#756974" opacity="1.000000" stroke="none" 
	d="
M281.007812,174.621063 
	C272.048859,177.665588 262.995392,179.859055 254.326767,183.086365 
	C246.002884,186.185303 238.272156,185.274963 230.331467,182.252289 
	C226.781784,180.901077 222.993469,180.186890 219.407089,178.918777 
	C216.594543,177.924301 215.907211,178.880966 215.970947,181.565826 
	C216.093246,186.717102 216.007217,191.873306 216.010239,197.492706 
	C205.281250,196.438248 205.281204,196.438248 205.281296,186.018250 
	C205.281326,182.031082 205.430313,178.036697 205.236771,174.058960 
	C205.069778,170.626862 205.811188,169.611679 209.407639,171.050171 
	C218.331955,174.619629 227.510681,177.563065 236.380630,181.254349 
	C241.362381,183.327545 245.758316,183.202713 250.687622,181.175110 
	C259.419739,177.583282 268.449951,174.717667 277.193481,171.151245 
	C281.101318,169.557281 281.438812,171.108093 281.007812,174.621063 
z"/>
<path fill="#F7E8A7" opacity="1.000000" stroke="none" 
	d="
M303.711182,232.000793 
	C306.442688,234.173401 308.752930,243.300797 306.935211,245.212570 
	C304.824707,247.432205 301.631134,245.920273 298.926361,246.130966 
	C296.934479,246.286133 297.152679,244.624619 297.149445,243.307541 
	C297.144562,241.312225 297.058838,239.311401 297.175232,237.322739 
	C297.397766,233.521103 299.306488,231.509293 303.711182,232.000793 
z"/>
<path fill="#EFD370" opacity="1.000000" stroke="none" 
	d="
M215.700867,207.983459 
	C216.017990,210.573578 215.977661,213.011292 215.910019,215.913025 
	C213.776184,215.934631 211.651886,215.562515 209.567032,215.034653 
	C205.733887,214.064133 204.052490,210.529648 205.383316,206.743149 
	C205.872345,205.351761 206.627899,205.545944 207.659119,205.827469 
	C210.212585,206.524536 212.781021,207.166794 215.700867,207.983459 
z"/>
<path fill="#FDEEAB" opacity="1.000000" stroke="none" 
	d="
M225.719757,251.681442 
	C240.220413,251.281555 254.373810,251.270172 268.525665,251.115555 
	C270.996490,251.088577 271.527313,252.041351 271.654877,254.316589 
	C272.275330,265.383209 272.342346,265.384277 261.385559,265.378174 
	C249.893127,265.371796 238.400681,265.354980 226.449799,265.233765 
	C223.526886,260.863678 224.063507,256.460724 225.719757,251.681442 
z"/>
<path fill="#EAD176" opacity="1.000000" stroke="none" 
	d="
M225.612488,251.245850 
	C226.036514,255.622162 226.005493,259.902771 225.982910,264.654053 
	C214.418564,266.243286 213.004623,264.645386 215.119232,253.236557 
	C215.441559,251.497574 216.235123,251.090530 217.735809,251.115295 
	C220.209213,251.156143 222.683533,251.141434 225.612488,251.245850 
z"/>
</svg>